<mxfile host="app.diagrams.net" agent="Mozilla/5.0 (Windows NT 10.0; Win64; x64) AppleWebKit/537.36 (KHTML, like Gecko) Chrome/139.0.0.0 Safari/537.36 Edg/139.0.0.0" version="28.1.1">
  <diagram name="Page-1" id="TftPY1np0MsakTUMp3C1">
    <mxGraphModel dx="1415" dy="920" grid="1" gridSize="10" guides="1" tooltips="1" connect="1" arrows="1" fold="1" page="1" pageScale="1" pageWidth="850" pageHeight="1100" math="0" shadow="0">
      <root>
        <mxCell id="0" />
        <mxCell id="1" parent="0" />
        <mxCell id="ZvlUYsgylHT-BXOpxZWs-19" value="&lt;h2&gt;&lt;font face=&quot;Lucida Console&quot;&gt;&lt;span style=&quot;font-size: 21px;&quot;&gt;Student Information Systgem&lt;/span&gt;&lt;/font&gt;&lt;/h2&gt;" style="rounded=0;whiteSpace=wrap;html=1;" vertex="1" parent="1">
          <mxGeometry x="200" y="40" width="440" height="60" as="geometry" />
        </mxCell>
        <mxCell id="ZvlUYsgylHT-BXOpxZWs-20" value="Manage&amp;nbsp;&lt;div&gt;Modules&lt;/div&gt;" style="ellipse;whiteSpace=wrap;html=1;aspect=fixed;" vertex="1" parent="1">
          <mxGeometry x="430" y="355" width="90" height="90" as="geometry" />
        </mxCell>
        <mxCell id="ZvlUYsgylHT-BXOpxZWs-21" value="Send E-mail&lt;div&gt;to User&lt;/div&gt;" style="ellipse;whiteSpace=wrap;html=1;aspect=fixed;" vertex="1" parent="1">
          <mxGeometry x="90" y="490" width="90" height="90" as="geometry" />
        </mxCell>
        <mxCell id="ZvlUYsgylHT-BXOpxZWs-40" style="edgeStyle=orthogonalEdgeStyle;rounded=0;orthogonalLoop=1;jettySize=auto;html=1;exitX=0.5;exitY=1;exitDx=0;exitDy=0;entryX=0.5;entryY=0;entryDx=0;entryDy=0;" edge="1" parent="1" source="ZvlUYsgylHT-BXOpxZWs-22" target="ZvlUYsgylHT-BXOpxZWs-21">
          <mxGeometry relative="1" as="geometry" />
        </mxCell>
        <mxCell id="ZvlUYsgylHT-BXOpxZWs-22" value="Forget&lt;div&gt;Password&lt;/div&gt;" style="ellipse;whiteSpace=wrap;html=1;aspect=fixed;" vertex="1" parent="1">
          <mxGeometry x="90" y="340" width="90" height="90" as="geometry" />
        </mxCell>
        <mxCell id="ZvlUYsgylHT-BXOpxZWs-41" style="edgeStyle=orthogonalEdgeStyle;rounded=0;orthogonalLoop=1;jettySize=auto;html=1;exitX=0.5;exitY=1;exitDx=0;exitDy=0;entryX=0.5;entryY=0;entryDx=0;entryDy=0;" edge="1" parent="1" source="ZvlUYsgylHT-BXOpxZWs-23" target="ZvlUYsgylHT-BXOpxZWs-24">
          <mxGeometry relative="1" as="geometry" />
        </mxCell>
        <mxCell id="ZvlUYsgylHT-BXOpxZWs-23" value="Login to system" style="ellipse;whiteSpace=wrap;html=1;aspect=fixed;" vertex="1" parent="1">
          <mxGeometry x="280" y="190" width="90" height="90" as="geometry" />
        </mxCell>
        <mxCell id="ZvlUYsgylHT-BXOpxZWs-24" value="Check Credentials" style="ellipse;whiteSpace=wrap;html=1;aspect=fixed;" vertex="1" parent="1">
          <mxGeometry x="270" y="355" width="110" height="110" as="geometry" />
        </mxCell>
        <mxCell id="ZvlUYsgylHT-BXOpxZWs-43" style="edgeStyle=orthogonalEdgeStyle;rounded=0;orthogonalLoop=1;jettySize=auto;html=1;exitX=0.5;exitY=1;exitDx=0;exitDy=0;entryX=0.5;entryY=0;entryDx=0;entryDy=0;" edge="1" parent="1" source="ZvlUYsgylHT-BXOpxZWs-25" target="ZvlUYsgylHT-BXOpxZWs-20">
          <mxGeometry relative="1" as="geometry" />
        </mxCell>
        <mxCell id="ZvlUYsgylHT-BXOpxZWs-25" value="Check roles of&lt;div&gt;Access&lt;/div&gt;" style="ellipse;whiteSpace=wrap;html=1;aspect=fixed;" vertex="1" parent="1">
          <mxGeometry x="430" y="190" width="90" height="90" as="geometry" />
        </mxCell>
        <mxCell id="ZvlUYsgylHT-BXOpxZWs-26" style="edgeStyle=orthogonalEdgeStyle;rounded=0;orthogonalLoop=1;jettySize=auto;html=1;exitX=0.5;exitY=1;exitDx=0;exitDy=0;" edge="1" parent="1" source="ZvlUYsgylHT-BXOpxZWs-23" target="ZvlUYsgylHT-BXOpxZWs-23">
          <mxGeometry relative="1" as="geometry" />
        </mxCell>
        <mxCell id="ZvlUYsgylHT-BXOpxZWs-38" style="edgeStyle=orthogonalEdgeStyle;rounded=0;orthogonalLoop=1;jettySize=auto;html=1;exitX=1;exitY=0.5;exitDx=0;exitDy=0;entryX=0;entryY=0.5;entryDx=0;entryDy=0;" edge="1" parent="1" source="ZvlUYsgylHT-BXOpxZWs-27" target="ZvlUYsgylHT-BXOpxZWs-23">
          <mxGeometry relative="1" as="geometry" />
        </mxCell>
        <mxCell id="ZvlUYsgylHT-BXOpxZWs-39" style="edgeStyle=orthogonalEdgeStyle;rounded=0;orthogonalLoop=1;jettySize=auto;html=1;exitX=0.5;exitY=1;exitDx=0;exitDy=0;entryX=0.5;entryY=0;entryDx=0;entryDy=0;" edge="1" parent="1" source="ZvlUYsgylHT-BXOpxZWs-27" target="ZvlUYsgylHT-BXOpxZWs-22">
          <mxGeometry relative="1" as="geometry" />
        </mxCell>
        <mxCell id="ZvlUYsgylHT-BXOpxZWs-27" value="&lt;h2&gt;&lt;font face=&quot;Times New Roman&quot;&gt;&lt;span style=&quot;font-size: 11px;&quot;&gt;Admin&lt;/span&gt;&lt;/font&gt;&lt;/h2&gt;" style="rounded=0;whiteSpace=wrap;html=1;" vertex="1" parent="1">
          <mxGeometry x="60" y="205" width="150" height="60" as="geometry" />
        </mxCell>
        <mxCell id="ZvlUYsgylHT-BXOpxZWs-28" value="Manage Fees Details" style="rounded=0;whiteSpace=wrap;html=1;" vertex="1" parent="1">
          <mxGeometry x="600" y="520" width="230" height="60" as="geometry" />
        </mxCell>
        <mxCell id="ZvlUYsgylHT-BXOpxZWs-29" value="Manage Teacher Profiles" style="rounded=0;whiteSpace=wrap;html=1;" vertex="1" parent="1">
          <mxGeometry x="600" y="600" width="230" height="60" as="geometry" />
        </mxCell>
        <mxCell id="ZvlUYsgylHT-BXOpxZWs-30" value="Manage Reports" style="rounded=0;whiteSpace=wrap;html=1;" vertex="1" parent="1">
          <mxGeometry x="600" y="680" width="230" height="60" as="geometry" />
        </mxCell>
        <mxCell id="ZvlUYsgylHT-BXOpxZWs-31" value="Manage Roles of User" style="rounded=0;whiteSpace=wrap;html=1;" vertex="1" parent="1">
          <mxGeometry x="210" y="640" width="150" height="60" as="geometry" />
        </mxCell>
        <mxCell id="ZvlUYsgylHT-BXOpxZWs-32" value="Manage user Permission" style="rounded=0;whiteSpace=wrap;html=1;" vertex="1" parent="1">
          <mxGeometry x="370" y="640" width="150" height="60" as="geometry" />
        </mxCell>
        <mxCell id="ZvlUYsgylHT-BXOpxZWs-33" value="Manage System Admins" style="rounded=0;whiteSpace=wrap;html=1;" vertex="1" parent="1">
          <mxGeometry x="40" y="640" width="150" height="60" as="geometry" />
        </mxCell>
        <mxCell id="ZvlUYsgylHT-BXOpxZWs-34" value="Manage Students Details" style="rounded=0;whiteSpace=wrap;html=1;" vertex="1" parent="1">
          <mxGeometry x="600" y="440" width="230" height="60" as="geometry" />
        </mxCell>
        <mxCell id="ZvlUYsgylHT-BXOpxZWs-35" value="Manage Class Details" style="rounded=0;whiteSpace=wrap;html=1;" vertex="1" parent="1">
          <mxGeometry x="600" y="355" width="230" height="60" as="geometry" />
        </mxCell>
        <mxCell id="ZvlUYsgylHT-BXOpxZWs-36" value="Manage Attendance Details" style="rounded=0;whiteSpace=wrap;html=1;" vertex="1" parent="1">
          <mxGeometry x="600" y="265" width="230" height="60" as="geometry" />
        </mxCell>
        <mxCell id="ZvlUYsgylHT-BXOpxZWs-37" value="Manage Time Table Details" style="rounded=0;whiteSpace=wrap;html=1;" vertex="1" parent="1">
          <mxGeometry x="600" y="180" width="230" height="60" as="geometry" />
        </mxCell>
        <mxCell id="ZvlUYsgylHT-BXOpxZWs-44" value="" style="endArrow=classic;html=1;rounded=0;entryX=0;entryY=0.5;entryDx=0;entryDy=0;exitX=1;exitY=0;exitDx=0;exitDy=0;" edge="1" parent="1" source="ZvlUYsgylHT-BXOpxZWs-20" target="ZvlUYsgylHT-BXOpxZWs-37">
          <mxGeometry width="50" height="50" relative="1" as="geometry">
            <mxPoint x="510" y="355" as="sourcePoint" />
            <mxPoint x="560" y="305" as="targetPoint" />
          </mxGeometry>
        </mxCell>
        <mxCell id="ZvlUYsgylHT-BXOpxZWs-45" value="" style="endArrow=classic;html=1;rounded=0;entryX=0;entryY=0.5;entryDx=0;entryDy=0;" edge="1" parent="1">
          <mxGeometry width="50" height="50" relative="1" as="geometry">
            <mxPoint x="520" y="390" as="sourcePoint" />
            <mxPoint x="600" y="287" as="targetPoint" />
            <Array as="points" />
          </mxGeometry>
        </mxCell>
        <mxCell id="ZvlUYsgylHT-BXOpxZWs-46" value="" style="endArrow=classic;html=1;rounded=0;entryX=0;entryY=0.5;entryDx=0;entryDy=0;exitX=1;exitY=0.5;exitDx=0;exitDy=0;" edge="1" parent="1" source="ZvlUYsgylHT-BXOpxZWs-20" target="ZvlUYsgylHT-BXOpxZWs-35">
          <mxGeometry width="50" height="50" relative="1" as="geometry">
            <mxPoint x="507" y="479" as="sourcePoint" />
            <mxPoint x="600" y="321" as="targetPoint" />
          </mxGeometry>
        </mxCell>
        <mxCell id="ZvlUYsgylHT-BXOpxZWs-47" value="" style="endArrow=classic;html=1;rounded=0;entryX=0;entryY=0.5;entryDx=0;entryDy=0;exitX=0.995;exitY=0.662;exitDx=0;exitDy=0;exitPerimeter=0;" edge="1" parent="1" source="ZvlUYsgylHT-BXOpxZWs-20">
          <mxGeometry width="50" height="50" relative="1" as="geometry">
            <mxPoint x="507" y="623" as="sourcePoint" />
            <mxPoint x="600" y="465" as="targetPoint" />
          </mxGeometry>
        </mxCell>
        <mxCell id="ZvlUYsgylHT-BXOpxZWs-48" value="" style="endArrow=classic;html=1;rounded=0;entryX=0;entryY=0.5;entryDx=0;entryDy=0;exitX=0.5;exitY=1;exitDx=0;exitDy=0;" edge="1" parent="1" source="ZvlUYsgylHT-BXOpxZWs-20">
          <mxGeometry width="50" height="50" relative="1" as="geometry">
            <mxPoint x="507" y="868" as="sourcePoint" />
            <mxPoint x="600" y="710" as="targetPoint" />
          </mxGeometry>
        </mxCell>
        <mxCell id="ZvlUYsgylHT-BXOpxZWs-49" value="" style="endArrow=classic;html=1;rounded=0;entryX=0;entryY=0.5;entryDx=0;entryDy=0;exitX=1;exitY=1;exitDx=0;exitDy=0;" edge="1" parent="1" source="ZvlUYsgylHT-BXOpxZWs-20">
          <mxGeometry width="50" height="50" relative="1" as="geometry">
            <mxPoint x="507" y="789" as="sourcePoint" />
            <mxPoint x="600" y="631" as="targetPoint" />
          </mxGeometry>
        </mxCell>
        <mxCell id="ZvlUYsgylHT-BXOpxZWs-50" value="" style="endArrow=classic;html=1;rounded=0;entryX=0;entryY=0.5;entryDx=0;entryDy=0;exitX=1;exitY=1;exitDx=0;exitDy=0;" edge="1" parent="1" source="ZvlUYsgylHT-BXOpxZWs-20">
          <mxGeometry width="50" height="50" relative="1" as="geometry">
            <mxPoint x="507" y="708" as="sourcePoint" />
            <mxPoint x="600" y="550" as="targetPoint" />
          </mxGeometry>
        </mxCell>
        <mxCell id="ZvlUYsgylHT-BXOpxZWs-51" value="" style="endArrow=classic;html=1;rounded=0;entryX=0;entryY=0.5;entryDx=0;entryDy=0;exitX=1;exitY=0;exitDx=0;exitDy=0;" edge="1" parent="1" source="ZvlUYsgylHT-BXOpxZWs-24">
          <mxGeometry width="50" height="50" relative="1" as="geometry">
            <mxPoint x="340" y="398" as="sourcePoint" />
            <mxPoint x="433" y="240" as="targetPoint" />
          </mxGeometry>
        </mxCell>
        <mxCell id="ZvlUYsgylHT-BXOpxZWs-52" value="" style="endArrow=classic;html=1;rounded=0;entryX=0.5;entryY=0;entryDx=0;entryDy=0;" edge="1" parent="1" target="ZvlUYsgylHT-BXOpxZWs-31">
          <mxGeometry width="50" height="50" relative="1" as="geometry">
            <mxPoint x="470" y="450" as="sourcePoint" />
            <mxPoint x="303" y="410" as="targetPoint" />
          </mxGeometry>
        </mxCell>
        <mxCell id="ZvlUYsgylHT-BXOpxZWs-53" value="" style="endArrow=classic;html=1;rounded=0;entryX=0.5;entryY=0;entryDx=0;entryDy=0;exitX=0.5;exitY=1;exitDx=0;exitDy=0;" edge="1" parent="1" source="ZvlUYsgylHT-BXOpxZWs-20" target="ZvlUYsgylHT-BXOpxZWs-32">
          <mxGeometry width="50" height="50" relative="1" as="geometry">
            <mxPoint x="230" y="558" as="sourcePoint" />
            <mxPoint x="323" y="400" as="targetPoint" />
          </mxGeometry>
        </mxCell>
        <mxCell id="ZvlUYsgylHT-BXOpxZWs-54" value="" style="endArrow=classic;html=1;rounded=0;entryX=0.5;entryY=0;entryDx=0;entryDy=0;exitX=0;exitY=1;exitDx=0;exitDy=0;" edge="1" parent="1" source="ZvlUYsgylHT-BXOpxZWs-20" target="ZvlUYsgylHT-BXOpxZWs-33">
          <mxGeometry width="50" height="50" relative="1" as="geometry">
            <mxPoint x="220" y="568" as="sourcePoint" />
            <mxPoint x="313" y="410" as="targetPoint" />
          </mxGeometry>
        </mxCell>
      </root>
    </mxGraphModel>
  </diagram>
</mxfile>
